<?xml version="1.0" encoding="utf-8"?>
<svg width="322.89996px" height="95.82605px" viewBox="0 0 322.89996 95.82605" version="1.1" xmlns:xlink="http://www.w3.org/1999/xlink" xmlns="http://www.w3.org/2000/svg">
  <defs>
    <linearGradient x1="0" y1="1.0000006" x2="1" y2="1" id="gradient_1">
      <stop offset="0%" stop-color="#D14C6D" />
      <stop offset="29.638756%" stop-color="#E471A9" />
      <stop offset="62.252487%" stop-color="#EE9F99" />
      <stop offset="100%" stop-color="#F2C37C" />
    </linearGradient>
    <filter filterUnits="userSpaceOnUse" color-interpolation-filters="sRGB" id="filter_1">
      <feFlood flood-opacity="0" result="BackgroundImageFix" />
      <feBlend mode="normal" in="SourceGraphic" in2="BackgroundImageFix" result="shape" />
      <feGaussianBlur stdDeviation="8" result="effect0_gaussianBlur" />
    </filter>
  </defs>
  <path d="M-20.001 -726L246.901 -726Q247.097 -726 247.293 -725.981Q247.488 -725.961 247.681 -725.923Q247.874 -725.885 248.062 -725.828Q248.25 -725.771 248.431 -725.695Q248.613 -725.62 248.786 -725.528Q248.959 -725.435 249.123 -725.326Q249.286 -725.217 249.438 -725.092Q249.59 -724.968 249.729 -724.829Q249.868 -724.69 249.992 -724.538Q250.117 -724.386 250.226 -724.223Q250.335 -724.059 250.428 -723.886Q250.52 -723.713 250.596 -723.531Q250.671 -723.35 250.728 -723.162Q250.785 -722.974 250.823 -722.781Q250.861 -722.589 250.881 -722.393Q250.9 -722.197 250.9 -722.001L250.9 -682.173Q250.9 -681.977 250.881 -681.781Q250.861 -681.586 250.823 -681.393Q250.785 -681.2 250.728 -681.012Q250.671 -680.824 250.596 -680.643Q250.52 -680.461 250.428 -680.288Q250.335 -680.115 250.226 -679.951Q250.117 -679.788 249.992 -679.636Q249.868 -679.484 249.729 -679.345Q249.59 -679.206 249.438 -679.082Q249.286 -678.957 249.123 -678.848Q248.959 -678.739 248.786 -678.646Q248.613 -678.554 248.431 -678.478Q248.25 -678.403 248.062 -678.346Q247.874 -678.289 247.681 -678.251Q247.488 -678.213 247.293 -678.193Q247.097 -678.174 246.901 -678.174L-20.001 -678.174Q-20.1975 -678.174 -20.393 -678.193Q-20.5885 -678.213 -20.7812 -678.251Q-20.9739 -678.289 -21.1618 -678.346Q-21.3498 -678.403 -21.5313 -678.478Q-21.7129 -678.554 -21.8861 -678.646Q-22.0594 -678.739 -22.2227 -678.848Q-22.3861 -678.957 -22.5379 -679.082Q-22.6898 -679.206 -22.8287 -679.345Q-22.9676 -679.484 -23.0923 -679.636Q-23.2169 -679.788 -23.326 -679.951Q-23.4352 -680.115 -23.5278 -680.288Q-23.6204 -680.461 -23.6956 -680.643Q-23.7708 -680.824 -23.8278 -681.012Q-23.8848 -681.2 -23.9232 -681.393Q-23.9615 -681.586 -23.9807 -681.781Q-24 -681.977 -24 -682.173L-24 -722.001Q-24 -722.197 -23.9807 -722.393Q-23.9615 -722.589 -23.9232 -722.781Q-23.8848 -722.974 -23.8278 -723.162Q-23.7708 -723.35 -23.6956 -723.531Q-23.6204 -723.713 -23.5278 -723.886Q-23.4352 -724.059 -23.326 -724.223Q-23.2169 -724.386 -23.0923 -724.538Q-22.9676 -724.69 -22.8287 -724.829Q-22.6898 -724.968 -22.5379 -725.092Q-22.3861 -725.217 -22.2227 -725.326Q-22.0594 -725.435 -21.8861 -725.528Q-21.7129 -725.62 -21.5313 -725.695Q-21.3498 -725.771 -21.1618 -725.828Q-20.9739 -725.885 -20.7812 -725.923Q-20.5885 -725.961 -20.393 -725.981Q-20.1975 -726 -20.001 -726Z" id="add-to-cart-shadow" fill="url(#gradient_1)" fill-rule="evenodd" stroke="none" filter="url(#filter_1)" />
</svg>